# xmcd
#
# Track frame offsets:
#	150
#	11272
#	27483
#	40548
#	56243
#	70348
#	83373
#	99049
#	111776
#	130846
#	143171
#	158379
#	174248
#
# Disc length: 2506 seconds
#
# Revision: 2
# Processed by: cddbd v1.5.1PL0 Copyright (c) Steve Scherf et al.
# Submitted via: EasyCDDAExtractor 7.5.0.1
#
DISCID=9009c80d
DTITLE=Grupo Quero-Quero - A Ave Fandangueira
DYEAR=2003
DGENRE=Gaúcha
TTITLE0=No Vai-e- Vem
TTITLE1=Morena Brasileira
TTITLE2=Juventude Baileira
TTITLE3=Moleca Guria
TTITLE4=Ela Chorou de Amor
TTITLE5=Num Fandango
TTITLE6=Pra os Dias Que Vem
TTITLE7=Bot Que Bota
TTITLE8=Ponto de Luz
TTITLE9=Jogo de Cobra
TTITLE10=O som do Quero-Quero
TTITLE11=Oh! Vida Boa
TTITLE12=Fazendo Festa
EXTD=
EXTT0=
EXTT1=
EXTT2=
EXTT3=
EXTT4=
EXTT5=
EXTT6=
EXTT7=
EXTT8=
EXTT9=
EXTT10=
EXTT11=
EXTT12=
PLAYORDER=
